HIERARCHY
ROOT SpineBase
{
  OFFSET 0.000000 0.000000 0.000000
  CHANNELS 6 Xposition Yposition Zposition Zrotation Xrotation Yrotation
  JOINT SpineMid
  {
    OFFSET 0.000000 28.576695 0.000000
    CHANNELS 3 Zrotation Xrotation Yrotation
    JOINT SpineShoulder
    {
      OFFSET 0.101472 21.416855 -0.926611
      CHANNELS 3 Zrotation Xrotation Yrotation
      JOINT Neck
      {
        OFFSET 0.121930 7.156948 -0.701261
        CHANNELS 3 Zrotation Xrotation Yrotation
        JOINT Head
        {
          OFFSET 2.658837 14.104780 -0.525324
          CHANNELS 3 Zrotation Xrotation Yrotation
          End Site
          {
            OFFSET 0 0 0
          }
        }
      }
      JOINT ShoulderLeft
      {
        OFFSET -8.599301 0.645793 -10.434745
        CHANNELS 3 Zrotation Xrotation Yrotation
        JOINT ElbowLeft
        {
          OFFSET -0.589991 -20.867435 -10.719332
          CHANNELS 3 Zrotation Xrotation Yrotation
          JOINT WristLeft
          {
            OFFSET 13.938704 -15.868109 -10.016622
            CHANNELS 3 Zrotation Xrotation Yrotation
            JOINT HandLeft
            {
              OFFSET 1.595619 -3.438262 -2.013086
              CHANNELS 3 Zrotation Xrotation Yrotation
              JOINT HandTipLeft
              {
                OFFSET 3.482876 -6.272715 -5.140835
                CHANNELS 3 Zrotation Xrotation Yrotation
                End Site
                {
                  OFFSET 0 0 0
                }
              }
              JOINT ThumbLeft
              {
                OFFSET -2.820375 -2.004649 -0.267604
                CHANNELS 3 Zrotation Xrotation Yrotation
                End Site
                {
                  OFFSET 0 0 0
                }
              }
            }
          }
        }
      }
      JOINT ShoulderRight
      {
        OFFSET 13.599567 -2.143502 10.678497
        CHANNELS 3 Zrotation Xrotation Yrotation
        JOINT ElbowRight
        {
          OFFSET 12.256039 -25.454129 -2.047804
          CHANNELS 3 Zrotation Xrotation Yrotation
          JOINT WristRight
          {
            OFFSET 10.896276 -16.086255 -13.189320
            CHANNELS 3 Zrotation Xrotation Yrotation
            JOINT HandRight
            {
              OFFSET 1.270815 -0.657685 -3.039074
              CHANNELS 3 Zrotation Xrotation Yrotation
              JOINT HandTipRight
              {
                OFFSET 2.171785 -4.956666 -1.767130
                CHANNELS 3 Zrotation Xrotation Yrotation
                End Site
                {
                  OFFSET 0 0 0
                }
              }
              JOINT ThumbRight
              {
                OFFSET 4.526523 2.900559 -1.352392
                CHANNELS 3 Zrotation Xrotation Yrotation
                End Site
                {
                  OFFSET 0 0 0
                }
              }
            }
          }
        }
      }
    }
  }
  JOINT HipLeft
  {
    OFFSET -4.988752 2.073083 -7.511777
    CHANNELS 3 Zrotation Xrotation Yrotation
    JOINT KneeLeft
    {
      OFFSET 18.670884 1.670174 -29.281550
      CHANNELS 3 Zrotation Xrotation Yrotation
      JOINT AnkleLeft
      {
        OFFSET 3.041463 -27.907145 9.166199
        CHANNELS 3 Zrotation Xrotation Yrotation
        JOINT FootLeft
        {
          OFFSET 8.212278 -2.468242 -11.090491
          CHANNELS 3 Zrotation Xrotation Yrotation
          End Site
          {
            OFFSET 0 0 0
          }
        }
      }
    }
  }
  JOINT HipRight
  {
    OFFSET 5.932660 0.862724 1.028555
    CHANNELS 3 Zrotation Xrotation Yrotation
    JOINT KneeRight
    {
      OFFSET 31.022385 7.373209 -5.240370
      CHANNELS 3 Zrotation Xrotation Yrotation
      JOINT AnkleRight
      {
        OFFSET -7.268591 -34.462580 -7.508624
        CHANNELS 3 Zrotation Xrotation Yrotation
        JOINT FootRight
        {
          OFFSET 1.285118 -6.087261 -8.670021
          CHANNELS 3 Zrotation Xrotation Yrotation
          End Site
          {
            OFFSET 0 0 0
          }
        }
      }
    }
  }
}
MOTION
Frames: 13
Frame Time: 0.033333
-49.536947 32.510420 329.585061 -0.000000 0.000000 -38.024715 0.000000 0.000000 38.024715 -0.000000 0.000000 0.000000 -0.000000 0.000000 0.000000 0.000000 0.000000 0.000000 -0.000000 0.000000 0.000000 -0.000000 0.000000 0.000000 -0.000000 0.000000 0.000000 -0.000000 0.000000 0.000000 0.000000 0.000000 0.000000 0.000000 0.000000 0.000000 -0.000000 0.000000 0.000000 -0.000000 0.000000 0.000000 -0.000000 0.000000 0.000000 -0.000000 0.000000 0.000000 0.000000 0.000000 0.000000 0.000000 0.000000 0.000000 0.000000 0.000000 38.024715 -0.000000 0.000000 0.000000 -0.000000 0.000000 0.000000 0.000000 0.000000 0.000000 0.000000 0.000000 38.024715 -0.000000 0.000000 0.000000 -0.000000 0.000000 0.000000 0.000000 0.000000 0.000000
-49.853029 32.547613 330.669586 -0.367703 -1.465282 -36.459010 -0.301295 0.550001 36.448417 0.283055 0.843925 0.006165 -0.000000 0.000000 0.000000 0.000000 0.000000 0.000000 -0.000000 0.000000 0.000000 -0.875027 -0.770246 -0.131559 0.236388 1.048285 0.631810 -2.847374 -3.067503 0.712861 0.000000 0.000000 0.000000 0.000000 0.000000 0.000000 -0.000000 0.000000 0.000000 -0.000000 0.000000 0.000000 6.198468 15.608663 0.475949 0.856508 -12.817063 -1.673696 0.000000 0.000000 0.000000 0.000000 0.000000 0.000000 -0.637982 2.479373 36.764666 0.009385 0.481718 0.045878 -0.608099 -1.385928 -0.356929 0.000000 0.000000 0.000000 -0.528837 0.934198 37.956111 0.248203 0.393333 -1.496585 -1.216612 -0.917237 1.550546 0.000000 0.000000 0.000000
-50.079560 32.580600 331.699058 -0.620868 -2.815411 -35.113346 -0.552538 1.004746 35.092560 0.494433 1.675825 0.006224 -0.000000 0.000000 0.000000 0.000000 0.000000 0.000000 -0.946187 0.555529 0.473643 -0.520516 -1.946364 -0.812617 0.266673 1.910980 1.259836 -4.603425 -5.187995 0.933633 0.000000 0.000000 0.000000 0.000000 0.000000 0.000000 -0.000000 0.000000 0.000000 -0.000000 0.000000 0.000000 13.011240 31.137317 -0.930140 0.010194 -26.276959 -1.939158 0.000000 0.000000 0.000000 0.000000 0.000000 0.000000 -1.181688 4.649671 35.810427 0.003491 0.867562 -0.055062 -2.196628 -3.847422 -0.334736 0.000000 0.000000 0.000000 -1.016553 1.767336 38.052145 0.475152 0.761778 -2.935084 -1.788852 -1.296581 2.298381 0.000000 0.000000 0.000000
-50.216539 32.609381 332.673474 -0.759392 -4.049269 -33.991412 -0.765886 1.358079 33.963939 0.634220 2.495285 0.001805 -0.000000 0.000000 0.000000 0.000000 0.000000 0.000000 -1.287603 0.835089 0.644601 -0.470995 -2.706142 -1.251614 0.109973 2.583052 1.868355 -5.369008 -6.403727 0.829531 0.000000 0.000000 0.000000 0.000000 0.000000 0.000000 -0.000000 0.000000 0.000000 -0.000000 0.000000 0.000000 19.998429 43.475223 -4.124166 -1.127512 -37.216084 -1.546668 0.000000 0.000000 0.000000 0.000000 0.000000 0.000000 -1.679832 6.512563 35.162391 -0.006777 1.176763 -0.290550 -3.503082 -5.808731 -0.209816 0.000000 0.000000 0.000000 -1.482340 2.488448 38.329509 0.681823 1.109393 -4.325935 -1.729427 -1.109031 2.250419 0.000000 0.000000 0.000000
-50.263968 32.633955 333.592837 -0.783206 -5.166477 -33.093200 -0.951588 1.605662 33.065628 0.529628 2.162609 0.005222 0.172740 1.139346 -0.004207 0.000000 0.000000 0.000000 -1.368915 2.255974 0.797280 -0.211800 -3.330485 -1.700714 -0.218779 3.060712 2.444225 -5.197516 -6.758687 0.493358 0.000000 0.000000 0.000000 0.000000 0.000000 0.000000 0.172740 1.139346 -0.004207 -0.000000 0.000000 0.000000 26.459316 51.708783 -8.173991 -1.938845 -44.614011 -0.944007 0.000000 0.000000 0.000000 0.000000 0.000000 0.000000 -2.172853 8.071022 34.820978 -0.014703 1.423636 -0.651362 -5.022541 -7.911854 0.121745 0.000000 0.000000 0.000000 -1.942892 3.088613 38.800424 0.869124 1.439799 -5.678870 -1.033642 -0.357171 1.402446 0.000000 0.000000 0.000000
-50.221845 32.654324 334.457144 -0.692257 -6.167154 -32.415855 -1.117609 1.744541 32.397720 0.561841 2.535191 0.006910 0.137480 1.560365 -0.015007 0.000000 0.000000 0.000000 -1.569546 2.961743 0.883215 0.260440 -3.823728 -2.153957 -0.710403 3.341234 2.978490 -4.089286 -6.272903 -0.052210 0.000000 0.000000 0.000000 0.000000 0.000000 0.000000 0.137480 1.560365 -0.015007 -0.000000 0.000000 0.000000 31.476112 56.467098 -11.798766 -2.462531 -48.894447 -0.448817 0.000000 0.000000 0.000000 0.000000 0.000000 0.000000 -2.692767 9.328086 34.785600 -0.016785 1.618447 -1.130780 -6.835873 -10.277741 0.679681 0.000000 0.000000 0.000000 -2.411830 3.560334 39.473386 1.037883 1.756268 -7.003080 0.319818 0.923051 -0.260079 0.000000 0.000000 0.000000
-50.052145 32.674932 335.650020 -0.402268 -7.514124 -31.663089 -1.397310 1.832897 31.679534 0.568664 3.041260 0.009331 0.061098 2.179375 -0.032370 0.000000 0.000000 0.000000 -1.630807 3.746446 0.872613 0.241918 -4.230546 -2.366870 -1.959858 3.778171 4.112881 -1.182846 -5.187503 -1.434264 0.000000 0.000000 0.000000 0.000000 0.000000 0.000000 0.061098 2.179375 -0.032370 -0.000000 0.000000 0.000000 24.838789 49.251606 -7.518583 -0.462404 -41.191098 0.237812 0.000000 0.000000 0.000000 0.000000 0.000000 0.000000 -3.515930 10.067744 35.111867 0.472569 2.089638 -2.010419 -11.493163 -15.670064 2.379836 0.000000 0.000000 0.000000 -3.128809 4.113819 40.695373 1.255977 2.203437 -8.919737 1.946797 2.284968 -2.256937 0.000000 0.000000 0.000000
-49.828847 32.688026 336.634459 -0.081499 -8.540326 -31.240104 -1.565831 1.784667 31.298827 0.495427 3.468418 0.011688 0.002469 2.733737 -0.046508 0.000000 0.000000 0.000000 -1.342827 4.300415 0.676946 -0.542032 -4.389301 -2.089609 -2.176638 6.294300 5.515241 4.579808 -3.050568 -4.022645 0.000000 0.000000 0.000000 0.000000 0.000000 0.000000 0.002469 2.733737 -0.046508 -0.000000 0.000000 0.000000 25.322119 49.839548 -7.818188 -0.049723 -41.822721 0.470817 0.000000 0.000000 0.000000 0.000000 0.000000 0.000000 -4.243788 10.803224 35.764801 0.679278 2.417345 -2.916778 -15.336768 -20.434956 3.508513 0.000000 0.000000 0.000000 -3.716781 4.457951 41.992581 1.436062 2.582462 -10.578257 4.453049 4.064833 -5.328112 0.000000 0.000000 0.000000
-49.526883 32.713453 337.411708 0.326270 -9.324099 -30.897256 -1.732716 1.703356 31.013223 0.399637 3.627453 0.019277 -0.105692 3.344753 -0.064453 0.000000 0.000000 0.000000 -1.454894 5.228628 0.669087 1.100356 -4.454427 -2.779955 -2.122203 2.714450 3.673214 5.519247 2.845838 -2.314884 0.000000 0.000000 0.000000 0.000000 0.000000 0.000000 -0.105692 3.344753 -0.064453 -0.000000 0.000000 0.000000 32.463616 57.316455 -12.517244 -3.106703 -49.443976 -0.666466 0.000000 0.000000 0.000000 0.000000 0.000000 0.000000 -4.953878 12.266754 36.290423 -0.346249 2.623032 -3.790614 -13.476814 -19.735464 3.213008 0.000000 0.000000 0.000000 -4.277512 4.630173 43.082784 1.586056 2.888885 -11.939282 7.229447 5.712322 -8.711274 0.000000 0.000000 0.000000
-49.142211 32.712675 337.579855 0.823121 -9.279291 -31.482393 -1.727671 1.256713 31.654633 0.255350 3.456452 0.031696 -0.247194 3.848132 -0.081767 0.000000 0.000000 0.000000 -2.084368 6.593418 0.937070 4.524943 -4.759145 -4.046949 -2.493094 -0.925796 2.053318 6.331005 5.228235 -2.984404 0.000000 0.000000 0.000000 0.000000 0.000000 0.000000 -0.247194 3.848132 -0.081767 -0.000000 0.000000 0.000000 28.787967 54.667365 -9.413860 -3.751544 -48.414571 -2.282642 0.000000 0.000000 0.000000 0.000000 0.000000 0.000000 -5.481485 11.918983 37.473272 -0.212409 2.050667 -4.318044 -17.928897 -24.571699 4.629407 0.000000 0.000000 0.000000 -4.628425 4.191837 44.256140 1.611407 3.007991 -12.481535 9.385888 7.241190 -11.217467 0.000000 0.000000 0.000000
-48.704693 32.534900 337.230082 1.399434 -8.566482 -33.103584 -1.650100 0.618895 33.326743 0.115105 3.001898 0.047307 -0.450429 4.144310 -0.098817 0.000000 0.000000 0.000000 -3.375393 7.775063 1.572737 10.548293 -5.612203 -6.792261 -4.399595 -4.882572 1.719709 8.054494 5.730602 -5.742338 0.000000 0.000000 0.000000 0.000000 0.000000 0.000000 -0.450429 4.144310 -0.098817 -0.000000 0.000000 0.000000 23.327879 46.689537 -7.050776 -2.315018 -41.419802 -0.959050 0.000000 0.000000 0.000000 0.000000 0.000000 0.000000 -5.951749 11.519889 39.271276 -0.638863 0.961539 -4.512855 -19.215361 -25.813633 5.253683 0.000000 0.000000 0.000000 -4.555537 3.528255 45.703331 1.135765 2.945166 -12.309861 15.839773 10.584394 -18.724963 0.000000 0.000000 0.000000
-48.667227 32.674252 336.878267 1.418579 -8.089169 -32.493571 -1.361629 0.441625 32.704346 0.337929 2.474715 0.064949 -0.839030 3.505696 0.064484 0.000000 0.000000 0.000000 -5.874252 9.108116 2.863861 20.713437 -6.080213 -10.345388 -2.377883 -9.467811 -0.796287 6.026045 4.081481 -7.866418 0.000000 0.000000 0.000000 0.000000 0.000000 0.000000 -0.823154 4.511158 -0.125598 -0.000000 0.000000 0.000000 14.203878 27.917661 -6.056288 3.449414 -22.596859 3.416861 0.000000 0.000000 0.000000 0.000000 0.000000 0.000000 -5.625360 11.980605 38.391208 -1.318306 0.235834 -4.375040 -14.739895 -20.392877 7.742620 0.000000 0.000000 0.000000 -4.724116 3.012877 44.154119 1.514408 2.760463 -11.369004 19.180869 12.049671 -22.527726 0.000000 0.000000 0.000000
-48.351932 32.916893 336.615034 1.768182 -7.613249 -33.765000 -1.546680 0.014695 34.006892 0.491710 1.966148 0.077665 0.668415 1.890632 0.374420 0.000000 0.000000 0.000000 -6.784118 11.701181 3.369434 32.426901 -8.093247 -13.341120 1.598371 -14.255153 -2.712412 2.919208 0.861816 -9.634805 0.000000 0.000000 0.000000 0.000000 0.000000 0.000000 -0.957382 4.775450 -0.135828 -0.342990 -0.781274 -0.252253 13.652994 24.633476 -8.124192 3.439790 -17.033598 6.087451 0.000000 0.000000 0.000000 0.000000 0.000000 0.000000 -5.854905 10.518004 39.607330 -1.345698 -0.188791 -4.547269 -12.839505 -17.719609 4.185943 0.000000 0.000000 0.000000 -5.111228 2.070930 45.181217 1.887121 2.729432 -11.116259 23.054674 9.590131 -28.002705 0.000000 0.000000 0.000000
